<svg width="121" height="121" viewBox="0 0 121 121" fill="none" xmlns="http://www.w3.org/2000/svg">
<path d="M60.1572 0.237305C27.0292 0.237305 0.0765381 27.1898 0.0765381 60.3176C0.0765381 89.0474 19.8516 114.291 47.0976 120.339C47.8359 120.503 48.6134 120.322 49.2074 119.848C49.799 119.371 50.1437 118.655 50.1437 117.895V102.874C50.1437 101.491 49.0241 100.371 47.6404 100.371H42.6337C36.7004 100.371 31.4028 93.0517 27.1441 87.1723C26.7236 86.5905 26.308 86.0184 25.8973 85.4586C27.6453 86.2776 29.3517 87.1332 30.7696 87.8446C34.8767 89.903 38.7564 91.849 41.9296 92.7584C42.0689 92.8048 42.2401 92.888 42.4307 92.9735C43.6531 93.5236 45.9242 94.5454 47.9606 93.2204C50.1437 91.8074 50.1437 88.8322 50.1437 87.8544V86.1089C50.1437 84.9892 49.4005 84.0065 48.3224 83.7009C34.4391 79.7674 25.1101 69.3653 25.1101 57.8142C25.1101 51.8077 27.5768 46.0725 32.2462 41.232C32.9649 40.4864 33.1507 39.379 32.7156 38.4402C30.8527 34.4236 31.2463 28.9598 33.4587 25.679C36.3801 26.8182 40.1694 29.2067 42.6312 32.1305C43.3084 32.9324 44.4207 33.2331 45.4059 32.8688C54.7935 29.4267 65.5208 29.4267 74.9084 32.8688C75.9034 33.2379 77.0108 32.9348 77.6831 32.1305C80.1449 29.2067 83.9342 26.8182 86.8556 25.679C89.068 28.9598 89.4616 34.4236 87.5988 38.4402C87.1636 39.379 87.3494 40.4864 88.0682 41.232C92.7375 46.0725 95.2042 51.8077 95.2042 57.8142C95.2042 69.9398 84.8412 80.799 70.0044 84.2191C69.2465 84.3952 68.6133 84.911 68.2906 85.6175C67.9679 86.324 67.9899 87.1405 68.3542 87.8275C69.5937 90.1744 70.1706 93.3647 70.1706 97.8678V117.895C70.1706 118.655 70.5153 119.371 71.1069 119.848C71.5567 120.207 72.1092 120.398 72.674 120.398C72.8549 120.398 73.0358 120.378 73.2167 120.339C100.463 114.291 120.238 89.0474 120.238 60.3176C120.238 27.1898 93.2851 0.237305 60.1572 0.237305Z" fill="url(#paint0_linear_3_356)"/>
<defs>
<linearGradient id="paint0_linear_3_356" x1="5.45543" y1="35.4711" x2="114.553" y2="86.3444" gradientUnits="userSpaceOnUse">
<stop stop-color="white"/>
<stop offset="1" stop-color="white"/>
</linearGradient>
</defs>
</svg>
