<svg width="121" height="121" viewBox="0 0 121 121" fill="none" xmlns="http://www.w3.org/2000/svg">
<path d="M60.1064 0.237305C43.7893 0.237305 41.7416 0.308652 35.3329 0.600293C28.9368 0.893186 24.5708 1.90579 20.7507 3.39154C16.7991 4.9261 13.4471 6.97885 10.1075 10.3196C6.76551 13.6591 4.71274 17.0111 3.17315 20.9614C1.68364 24.7827 0.66977 29.1499 0.38188 35.5434C0.0952426 41.952 0.0201416 44.001 0.0201416 60.3179C0.0201416 76.6348 0.0927409 78.6763 0.383134 85.0849C0.677281 91.481 1.6899 95.8469 3.17441 99.667C4.71024 103.619 6.76301 106.971 10.1038 110.31C13.442 113.652 16.7941 115.71 20.7432 117.244C24.5658 118.73 28.933 119.743 35.3279 120.036C41.7366 120.327 43.7831 120.399 60.0989 120.399C76.4172 120.399 78.4587 120.327 84.8674 120.036C91.2635 119.743 95.6345 118.73 99.4571 117.244C103.407 115.71 106.754 113.652 110.093 110.31C113.435 106.971 115.488 103.619 117.027 99.6683C118.504 95.8469 119.518 91.4798 119.818 85.0862C120.106 78.6776 120.181 76.6348 120.181 60.3179C120.181 44.001 120.106 41.9533 119.818 35.5447C119.518 29.1486 118.504 24.7827 117.027 20.9626C115.488 17.0111 113.435 13.6591 110.093 10.3196C106.751 6.9776 103.409 4.92485 99.4534 3.39154C95.6232 1.90579 91.2548 0.893186 84.8586 0.600293C78.45 0.308652 76.4097 0.237305 60.0876 0.237305H60.1064ZM54.7166 11.0643C56.3163 11.0618 58.1012 11.0643 60.1064 11.0643C76.1481 11.0643 78.0494 11.1219 84.3842 11.4098C90.2422 11.6777 93.4215 12.6565 95.5393 13.4788C98.3431 14.5678 100.342 15.8695 102.444 17.9724C104.547 20.0752 105.848 22.0779 106.94 24.8816C107.762 26.997 108.742 30.1762 109.009 36.0341C109.297 42.3676 109.359 44.2701 109.359 60.3042C109.359 76.3382 109.297 78.2407 109.009 84.5742C108.741 90.4321 107.762 93.6114 106.94 95.7267C105.851 98.5305 104.547 100.527 102.444 102.628C100.341 104.731 98.3444 106.033 95.5393 107.122C93.424 107.948 90.2422 108.924 84.3842 109.192C78.0507 109.48 76.1481 109.543 60.1064 109.543C44.0635 109.543 42.1621 109.48 35.8286 109.192C29.9706 108.922 26.7913 107.943 24.6722 107.121C21.8684 106.032 19.8657 104.73 17.7629 102.627C15.66 100.524 14.3583 98.5267 13.2668 95.7217C12.4444 93.6064 11.4644 90.4271 11.1978 84.5692C10.9099 78.2357 10.8523 76.3332 10.8523 60.2891C10.8523 44.2451 10.9099 42.3526 11.1978 36.0191C11.4656 30.1612 12.4444 26.9819 13.2668 24.8641C14.3558 22.0603 15.66 20.0577 17.7629 17.9548C19.8657 15.852 21.8684 14.5503 24.6722 13.4588C26.7901 12.6327 29.9706 11.6564 35.8286 11.3873C41.3711 11.1369 43.519 11.0618 54.7166 11.0493V11.0643ZM92.1773 21.0402C88.1969 21.0402 84.9675 24.2658 84.9675 28.2474C84.9675 32.2277 88.1969 35.4571 92.1773 35.4571C96.1577 35.4571 99.387 32.2277 99.387 28.2474C99.387 24.2671 96.1577 21.0377 92.1773 21.0377V21.0402ZM60.1064 29.464C43.0671 29.464 29.2522 43.2788 29.2522 60.3179C29.2522 77.357 43.0671 91.1656 60.1064 91.1656C77.1457 91.1656 90.9556 77.357 90.9556 60.3179C90.9556 43.2788 77.1444 29.464 60.1051 29.464H60.1064ZM60.1064 40.2911C71.1664 40.2911 80.1335 49.2568 80.1335 60.3179C80.1335 71.3778 71.1664 80.3448 60.1064 80.3448C49.0452 80.3448 40.0793 71.3778 40.0793 60.3179C40.0793 49.2568 49.0452 40.2911 60.1064 40.2911Z" fill="white"/>
</svg>
