<svg width="107" height="87" viewBox="0 0 107 87" fill="none" xmlns="http://www.w3.org/2000/svg">
<path d="M104.583 1.41663C102.781 0.0410289 99.9497 -0.155795 97.0226 0.901864H97.0178C93.9392 2.0136 9.87444 34.4658 6.45224 35.7916C5.82981 35.9863 0.393713 37.8118 0.953665 41.878C1.45354 45.5442 5.8226 47.0625 6.35611 47.2377L27.728 53.8237C29.1459 58.0717 34.3729 73.7441 35.5289 77.0923C36.2498 79.1795 37.425 81.922 39.4846 82.4865C41.2918 83.1138 43.0894 82.5406 44.2526 81.7187L57.3189 70.8112L78.412 85.6162L78.9143 85.8866C80.3466 86.4576 81.7188 86.7431 83.0286 86.7431C84.0404 86.7431 85.0113 86.5723 85.9389 86.2305C89.0992 85.0626 90.3633 82.3524 90.4954 82.0453L106.251 8.34009C107.212 4.4036 105.876 2.40076 104.583 1.41663ZM46.5765 56.4582L39.3668 73.7614L32.1571 52.1324L87.4313 15.363L46.5765 56.4582Z" fill="white"/>
</svg>
